<?xml version="1.0" encoding="utf-8"?>
<!-- Generator: Adobe Illustrator 24.2.3, SVG Export Plug-In . SVG Version: 6.00 Build 0)  -->
<svg version="1.1" id="Layer_1" xmlns="http://www.w3.org/2000/svg" xmlns:xlink="http://www.w3.org/1999/xlink" x="0px" y="0px"
	 viewBox="0 0 5948.9 5887.9" style="enable-background:new 0 0 5948.9 5887.9;" xml:space="preserve">
<style type="text/css">
	.st0{fill:#FFCA6B;}
</style>
<g>
	<path class="st0" d="M640.7,1284.6c-54.5,31.8-6.4,113.1,47.5,82.3l411.6-237.6c54.5-31.8,6.4-113.1-47.5-82.3L640.7,1284.6z
		 M1132.1,405.2c-54.5,31.8-6.4,113.1,47.5,82.3l411.6-237.6c54.5-31.8,6.4-113.1-47.5-82.3L1132.1,405.2z M4390.2,5557.2
		c-53.8,32.8-4.2,113.2,49.2,81.3l406.7-245.9c53.8-32.8,4.2-113.2-49.2-81.3L4390.2,5557.2z M5209.6,3067.1
		c47,12.6,90.4,39,123.7,77.4c127.9-73.8,255.8-147.7,383.7-221.5c54-30.8,102,50.5,47.5,82.3c-127.9,73.9-255.8,147.7-383.7,221.5
		c16.6,48,17.8,98.7,5.2,145.7c-35.5,132.6-172.6,212-305.4,176.4c-47-12.6-90.4-39-123.7-77.4c-148.2,85.6-296.5,171.2-444.7,256.8
		c-54,30.8-102-50.5-47.5-82.3c148.2-85.6,296.4-171.2,444.7-256.7c-16.6-48-17.7-98.7-5.1-145.8
		C4939.9,3110.1,5076.8,3031.5,5209.6,3067.1L5209.6,3067.1z M5185.1,3158.8c-82.5-22.1-167.1,26.6-189.2,109.2
		c-22.1,82.6,26.7,167.1,109.2,189.2c82.5,22.1,167.1-26.7,189.2-109.2C5316.4,3265.5,5267.7,3181,5185.1,3158.8z M3823.1,4436.2
		c103.5-59.8,234.7-37.7,312.7,52.4c126-72.8,252.1-145.5,378.2-218.3c54.1-30.9,101.9,50.6,47.5,82.3
		c-126,72.8-252.1,145.5-378.1,218.3c39.1,112.7-7.7,237.4-111.2,297.2c-103.5,59.8-234.7,37.7-312.7-52.4
		c-222.7,128.6-445.3,257.1-668,385.7c-53.9,30.8-102-50.5-47.5-82.3c222.7-128.6,445.3-257.1,668-385.7
		C3672.8,4620.7,3719.6,4496,3823.1,4436.2L3823.1,4436.2z M3870.2,4518.3c-73.7,42.6-99,137.6-56.5,211.3
		c42.6,73.7,137.6,99,211.3,56.5c73.7-42.6,99-137.6,56.5-211.3C4038.9,4501,3943.9,4475.7,3870.2,4518.3L3870.2,4518.3z
		 M2243.5,4779.6c37.8,10.1,70.7,32.3,103,56.2c26,19.3,28.8,12.1,60.2-1.7c274.4-158.4,548.7-316.8,823.1-475.2
		c54-30.8,102,50.5,47.5,82.3c-274.4,158.4-548.8,316.8-823.1,475.2c-37.6,21.5-35.7,32.9-32.1,48.8c9.2,40,8.1,81.2-2.3,119.8
		c-35.6,132.7-172.7,212-305.4,176.4c-47-12.6-90.4-39-123.7-77.4l-359.7,207.6c-54,30.8-102-50.5-47.5-82.3l359.6-207.6
		c-16.6-48-17.8-98.7-5.2-145.7C1973.6,4823.3,2110.8,4744,2243.5,4779.6L2243.5,4779.6z M2219,4871.3
		c-82.6-22.1-167.1,26.6-189.2,109.2c-29.4,96.5,31.6,171,109.2,189.2c82.6,22.1,167.1-26.6,189.2-109.2
		C2350.3,4977.9,2301.6,4893.4,2219,4871.3L2219,4871.3z M3537.5,3379.8c47,12.6,90.4,39,123.7,77.4
		c125.6-72.5,251.2-145,376.8-217.5c53.9-30.8,102,50.5,47.5,82.3c-125.6,72.5-251.2,145-376.8,217.5
		c39.1,112.7-7.7,237.4-111.2,297.2c-103.5,59.8-234.7,37.8-312.7-52.4l-112.2,64.8c-53.9,30.8-102-50.5-47.5-82.3l112.2-64.8
		c-16.6-48-17.8-98.7-5.2-145.7C3267.6,3423.6,3404.6,3344.2,3537.5,3379.8L3537.5,3379.8z M3513,3471.5
		c-82.5-22.1-167.1,26.7-189.2,109.2c-36,134.3,109.5,241.5,226.6,173.9c73.7-42.6,99-137.6,56.5-211.3
		C3585.6,3506.5,3551.3,3481.7,3513,3471.5z M762.5,4329.2c47,12.6,90.4,39,123.7,77.4l385.7-222.7c54-30.8,102,50.5,47.5,82.3
		l-385.6,222.6c16.6,48,17.7,98.7,5.1,145.8c-35.7,133.4-172.6,212-305.4,176.4c-132.7-35.6-212-172.7-176.4-305.4
		C492.7,4372.9,629.8,4293.6,762.5,4329.2L762.5,4329.2z M738,4420.9c-82.6-22.1-167.1,26.6-189.2,109.2
		c-22.1,82.6,26.6,167.1,109.2,189.2c82.5,22.1,167.1-26.6,189.2-109.2C869.4,4527.5,820.5,4443,738,4420.9z M4863.4,1877.4
		c103.5-59.8,234.7-37.7,312.7,52.4c115.6-66.8,231.2-133.6,346.8-200.3c53.9-30.8,102,50.5,47.5,82.3
		c-115.6,66.7-231.2,133.5-346.8,200.3c39.1,112.7-7.7,237.4-111.2,297.1c-119.4,68.9-271.6,28-340.5-91.4
		C4703.1,2098.5,4744.1,1946.3,4863.4,1877.4L4863.4,1877.4z M4910.6,1959.4c-73.7,42.6-99,137.6-56.5,211.3
		c42.6,73.7,137.6,99,211.3,56.5c73.7-42.6,99-137.6,56.5-211.3C5079.3,1942.2,4984.2,1916.9,4910.6,1959.4z M2011.1,2218.7
		c103.5-59.8,234.7-37.7,312.7,52.4c124.8-72.1,249.7-144.2,374.5-216.2c54-30.8,102,50.5,47.5,82.3
		c-124.8,72-249.7,144.1-374.5,216.2c39.1,112.7-7.7,237.4-111.2,297.2c-103.5,59.7-234.7,37.7-312.7-52.4
		c-273.6,158-547.2,315.9-820.8,473.9c-54,30.8-102-50.5-47.5-82.3c273.6-158,547.2-315.8,820.8-473.9
		C1860.8,2403.2,1907.6,2278.4,2011.1,2218.7L2011.1,2218.7z M2058.2,2300.7c-73.7,42.6-99,137.6-56.5,211.3
		c42.6,73.7,137.6,99,211.3,56.5c82.8-47.8,92.4-134.2,54.5-214.6C2223.9,2282.6,2130.6,2259,2058.2,2300.7z M3747.2,1216.3
		c103.5-59.8,234.7-37.7,312.7,52.4c125.7-72.6,251.4-145.4,377.2-217.8c53.9-30.8,102,50.5,47.5,82.3L4107.5,1351
		c39.1,112.7-7.7,237.4-111.2,297.1c-103.5,59.8-234.7,37.7-312.7-52.4c-175.4,101.3-350.7,202.5-526.1,303.8
		c-53.9,30.8-102-50.5-47.5-82.3c175.4-101.2,350.7-202.5,526.1-303.7C3596.9,1400.8,3643.7,1276.1,3747.2,1216.3L3747.2,1216.3z
		 M3794.4,1298.4c-73.7,42.6-99,137.6-56.5,211.3c42.6,73.7,137.6,99,211.3,56.5c73.7-42.6,99-137.6,56.5-211.3
		C3963.1,1281.2,3868,1255.9,3794.4,1298.4z M2836.9,669.4c125.7-72.6,251.4-145.2,377.2-217.8c54-30.8,102,50.5,47.5,82.3
		c-125.8,72.5-251.5,145.2-377.2,217.8c39.1,112.7-7.7,237.4-111.2,297.2c-103.5,59.8-234.7,37.7-312.7-52.4l-145.8,84.2
		c-54,30.8-102-50.5-47.5-82.3l145.8-84.2c-42.1-121.6,11.2-238.2,119.8-302.2C2629.5,555,2764.6,586,2836.9,669.4L2836.9,669.4z
		 M2514.8,910.2c42.4,73.5,137.7,99.1,211.3,56.7c73.7-42.6,99-137.6,56.5-211.3c-42.2-73.1-135.9-98.6-209.3-57.6
		C2498.4,739.7,2471.9,835.9,2514.8,910.2z M392.2,2584.8c132.7,35.6,212,172.7,176.4,305.4c-35.6,132.7-172.7,212-305.4,176.4
		c-132.7-35.6-212-172.7-176.4-305.4C122.3,2628.5,259.5,2549.2,392.2,2584.8z M367.7,2676.5c-82.6-22.1-167.1,26.6-189.2,109.2
		c-22.1,82.6,26.6,167.1,109.2,189.2c82.6,22.1,167.1-26.6,189.2-109.2C499.1,2783.1,450.3,2698.6,367.7,2676.5z M3176.1,5695.4
		c-54.5,31.8-6.4,113.1,47.5,82.3l411.6-237.6c54.5-31.8,6.4-113.1-47.5-82.3L3176.1,5695.4L3176.1,5695.4z M5447.9,4493.5
		c54.5-31.8,6.4-113.1-47.5-82.3l-166.5,96.1c-54.5,31.8-6.4,113.1,47.5,82.3L5447.9,4493.5z M4869.9,4827.3
		c54.5-31.8,6.4-113.1-47.5-82.3l-823.1,475.2c-54.5,31.8-6.4,113.1,47.5,82.3L4869.9,4827.3L4869.9,4827.3z M2220.8,5594.3
		c-54.5,31.8-6.4,113.1,47.5,82.3c137.2-79.2,274.4-158.4,411.6-237.6c54.5-31.8,6.4-113.1-47.5-82.3L2220.8,5594.3z M5730.3,3677.8
		c54.5-31.8,6.4-113.1-47.5-82.3c-252.4,145.7-504.8,291.4-757.2,437.2c-54.4,31.8-6.5,113.1,47.5,82.3
		C5225.5,3969.3,5477.9,3823.6,5730.3,3677.8L5730.3,3677.8z M4100.6,3966c54.5-31.8,6.4-113.1-47.5-82.3l-411.6,237.6
		c-54.5,31.8-6.4,113.1,47.5,82.3L4100.6,3966L4100.6,3966z M1067.3,4954.8c-54.5,31.8-6.4,113.1,47.5,82.3l411.6-237.6
		c54.5-31.8,6.4-113.1-47.5-82.3L1067.3,4954.8L1067.3,4954.8z M5756.5,2357.2c54.5-31.8,6.4-113.1-47.5-82.3
		c-8.2,4.8-16.5,9.5-24.7,14.3c-54.5,31.8-6.4,113.1,47.5,82.3C5740,2366.7,5748.3,2361.9,5756.5,2357.2z M5320.2,2609.1
		c54.5-31.8,6.4-113.1-47.5-82.3c-274.4,158.4-548.8,316.8-823.1,475.2c-54.5,31.8-6.4,113.1,47.5,82.3
		C4771.5,2925.9,5045.9,2767.5,5320.2,2609.1L5320.2,2609.1z M2761.1,4086.6c54.5-31.8,6.4-113.1-47.5-82.3
		c-274.4,158.3-548.8,316.8-823.1,475.2c-54.5,31.8-6.4,113.1,47.5,82.3C2212.3,4403.4,2486.6,4244.9,2761.1,4086.6z M4612,2365.2
		c54.5-31.8,6.4-113.1-47.5-82.3c-274.4,158.4-548.8,316.8-823.1,475.2c-54.5,31.8-6.4,113.1,47.5,82.3
		C4063.2,2682.1,4337.6,2523.7,4612,2365.2z M3377.2,3078.1c54.5-31.8,6.4-113.1-47.5-82.3l-411.6,237.6
		c-54.3,31.7-6.6,113.2,47.5,82.3C3102.9,3236.5,3240.1,3157.3,3377.2,3078.1z M2554.1,3553.3c54.3-31.7,6.6-113.2-47.5-82.3
		c-274.4,158.4-548.8,316.7-823.1,475.2c-54.5,31.8-6.4,113.1,47.5,82.3C2005.3,3870.2,2279.7,3711.8,2554.1,3553.3z M431,4016.7
		c-54.5,31.8-6.4,113.1,47.5,82.3l411.6-237.6c54.5-31.8,6.4-113.1-47.5-82.3L431,4016.7L431,4016.7z M5005.8,1485.2
		c54.5-31.8,6.4-113.1-47.5-82.3l-411.6,237.6c-54.5,31.8-6.4,113.1,47.5,82.3C4731.4,1643.6,4868.6,1564.3,5005.8,1485.2
		L5005.8,1485.2z M4182.6,1960.4c54.5-31.8,6.4-113.1-47.5-82.3c-274.4,158.4-548.8,316.8-823.1,475.2
		c-54.5,31.8-6.4,113.1,47.5,82.3C3633.9,2277.2,3908.2,2118.8,4182.6,1960.4L4182.6,1960.4z M2947.9,2673.2
		c54.5-31.8,6.4-113.1-47.5-82.3c-137.2,79.2-274.4,158.4-411.6,237.6c-54.5,31.8-6.4,113.1,47.5,82.3
		C2673.5,2831.7,2810.7,2752.4,2947.9,2673.2L2947.9,2673.2z M2124.8,3148.5c54.5-31.8,6.4-113.1-47.5-82.3
		c-274.4,158.4-548.7,316.9-823.1,475.2c-54.3,31.7-6.6,113.2,47.5,82.3C1576,3465.3,1850.4,3306.9,2124.8,3148.5z M256,3465
		c-54.5,31.8-6.4,113.1,47.5,82.3c137.2-79.2,274.4-158.4,411.6-237.6c54.5-31.8,6.4-113.1-47.5-82.3
		C530.3,3306.5,393.2,3385.8,256,3465z M4917,883.7c54.5-31.8,6.4-113.1-47.5-82.3l-20.8,12c-54.4,31.8-6.5,113.1,47.5,82.3
		L4917,883.7L4917,883.7z M701.8,2554.8c-54.5,31.8-6.4,113.1,47.5,82.3l411.6-237.6c54.5-31.8,6.4-113.1-47.5-82.3L701.8,2554.8z
		 M4409.6,523.9c54.5-31.8,6.4-113.1-47.5-82.3c-259.7,150-519.5,299.9-779.2,449.9c-54.4,31.8-6.5,113.1,47.5,82.3
		C3890.1,823.8,4149.8,673.9,4409.6,523.9z M3218.7,1211.4c54.5-31.8,6.4-113.1-47.5-82.3c-137.2,79.2-274.5,158.3-411.6,237.6
		c-54.5,31.8-6.4,113.1,47.5,82.3C2944.4,1369.9,3081.5,1290.6,3218.7,1211.4z M2395.6,1686.7c54.4-31.8,6.5-113.1-47.5-82.3
		c-274.4,158.4-548.8,316.8-823.1,475.2c-54.5,31.8-6.4,113.1,47.5,82.3C1846.8,2003.4,2121.2,1845,2395.6,1686.7z M209.3,2186.5
		c-54.5,31.8-6.4,113.1,47.5,82.3c137.2-79.2,274.4-158.5,411.6-237.6c54.5-31.8,6.4-113.1-47.5-82.3
		C483.6,2028,346.5,2107.3,209.3,2186.5z M3733.8,261.3c54.5-31.8,6.4-113.1-47.5-82.3l-60.7,35c-54.5,31.8-6.4,113.1,47.5,82.3
		L3733.8,261.3z M1903.1,1318.3c54.5-31.8,6.4-113.1-47.5-82.3c-274.4,158.4-548.8,316.8-823.1,475.2
		c-54.5,31.8-6.4,113.1,47.5,82.3C1354.3,1635.1,1628.7,1476.7,1903.1,1318.3L1903.1,1318.3z M2760.6,170.5
		c54.5-31.8,6.4-113.1-47.5-82.3l-14.5,8.4c-54.5,31.8-6.4,113.1,47.5,82.3L2760.6,170.5z M2334.5,416.5
		c54.5-31.8,6.4-113.1-47.5-82.3l-823.1,475.2c-54.5,31.8-6.4,113.1,47.5,82.3L2334.5,416.5L2334.5,416.5z"/>
</g>
<text transform="matrix(1 0 0 1 0 6555.6211)" style="font-family:'HelveticaNeue-Bold'; font-size:0.6736px;">Created by Oleksandr Panasovskyi</text>
<text transform="matrix(1 0 0 1 0 6556.2949)" style="font-family:'HelveticaNeue-Bold'; font-size:0.6736px;">from the Noun Project</text>
</svg>
