<?xml version="1.0" encoding="utf-8"?>
<!-- Generator: Adobe Illustrator 24.2.3, SVG Export Plug-In . SVG Version: 6.00 Build 0)  -->
<svg version="1.1" id="Layer_1" xmlns="http://www.w3.org/2000/svg" xmlns:xlink="http://www.w3.org/1999/xlink" x="0px" y="0px"
	 viewBox="0 0 128 132.5" style="enable-background:new 0 0 128 132.5;" xml:space="preserve">
<style type="text/css">
	.st0{fill:#BA4C8B;}
</style>
<path class="st0" d="M126,75.3c1.1,0,2-0.9,2-2s-0.9-2-2-2H98.3c-1,0-1.8,0.7-2,1.6c-3.6,17.9-21,29.4-38.9,25.8
	c-13-2.6-23.1-12.8-25.8-25.8c-0.2-0.9-1-1.6-2-1.6H2c-1.1,0-2,0.9-2,2s0.9,2,2,2h26.1c2.2,8.8,7.6,16.5,15.1,21.6l-5.1,5.4H2
	c-1.1,0-2,0.9-2,2s0.9,2,2,2h37c0.6,0,1.1-0.2,1.5-0.6l6.2-6.7c17.6,9.3,39.4,3.1,49.3-14.2l7.2,5.6c0.4,0.3,0.8,0.4,1.2,0.4H126
	c1.1,0,2-0.9,2-2s-0.9-2-2-2h-20.9L98,81.2l-0.1-0.1c0.8-1.9,1.5-3.9,2-5.9L126,75.3z"/>
<path class="st0" d="M41,66.3c0-1.1-0.9-2-2-2s-2,0.9-2,2c0,8.4,3.9,16.3,10.5,21.4c0.9,0.7,2.1,0.5,2.8-0.4
	c0.7-0.9,0.5-2.1-0.4-2.8C44.3,80.2,41,73.4,41,66.3z"/>
<path class="st0" d="M64,39.3c-1.1,0-2,0.9-2,2s0.9,2,2,2c12.7,0,23,10.3,23,23s-10.3,23-23,23c-1.6,0-3.2-0.2-4.8-0.5
	c-1.1-0.2-2.1,0.5-2.4,1.5c-0.2,1.1,0.5,2.1,1.5,2.4c1.9,0.4,3.8,0.6,5.7,0.6c14.9,0,27-12.1,27-27S78.9,39.3,64,39.3z"/>
<path class="st0" d="M64,83.3c1.1,0,2-0.9,2-2s-0.9-2-2-2c-7.2,0-13-5.8-13-13s5.8-13,13-13s13,5.8,13,13c0,1.1,0.9,2,2,2s2-0.9,2-2
	c0-9.4-7.6-17-17-17s-17,7.6-17,17S54.6,83.3,64,83.3z"/>
<path class="st0" d="M99.9,57.3c-1.8-7.2-5.7-13.6-11.2-18.6c-0.8-0.7-2.1-0.7-2.8,0.2S85.2,41,86,41.7c5.3,4.7,8.9,11,10.3,18
	c0.2,0.9,1,1.6,2,1.6H112c1.1,0,2-0.9,2-2v-6.4c3.7-1.2,5.6-5.2,4.4-8.9c-1.2-3.7-5.2-5.6-8.9-4.4s-5.6,5.2-4.4,8.9
	c0.8,2.2,2.6,3.9,4.9,4.5v4.2H99.9z M108.8,46.3c0-1.7,1.3-3,3-3s3,1.3,3,3s-1.3,3-3,3S108.8,47.9,108.8,46.3z"/>
<path class="st0" d="M57,66.3c0,3.9,3.1,7,7,7s7-3.1,7-7s-3.1-7-7-7S57,62.4,57,66.3z M67,66.3c0,1.7-1.3,3-3,3s-3-1.3-3-3
	s1.3-3,3-3S67,64.6,67,66.3z"/>
<path class="st0" d="M126,13.3h-23.7L86.2,2.6c-0.3-0.2-0.7-0.3-1.1-0.3H34.5c-0.6,0-1.1,0.2-1.5,0.6l-5.9,6.4H2c-1.1,0-2,0.9-2,2
	s0.9,2,2,2h26c0.6,0,1.1-0.2,1.5-0.6l5.9-6.4h49L100.6,17c0.3,0.2,0.7,0.3,1.1,0.3H126c1.1,0,2-0.9,2-2S127.1,13.3,126,13.3z"/>
<path class="st0" d="M2,22.3h32c0.6,0,1.1-0.2,1.5-0.6l6.5-7c0.7-0.8,0.6-2.1-0.2-2.8c-0.8-0.7-2-0.6-2.7,0.1l-5.9,6.4H2
	c-1.1,0-2,0.9-2,2S0.9,22.3,2,22.3z"/>
<path class="st0" d="M2,30.3h36.1l5.1,5.4c-7.5,5.1-12.9,12.8-15.1,21.6H18V48c3.7-1,5.9-4.8,4.9-8.6c-1-3.7-4.8-5.9-8.6-4.9
	c-3.7,1-5.9,4.8-4.9,8.6c0.6,2.3,2.3,4.1,4.6,4.8v11.4c0,1.1,0.9,2,2,2h13.7c1,0,1.8-0.7,2-1.6C34.9,44.4,48.3,33.3,64,33.3
	c4.3,0,8.6,0.8,12.6,2.5c1,0.4,2.2-0.1,2.6-1.1c0.4-1-0.1-2.2-1.1-2.6c-10.2-4.2-21.7-3.6-31.4,1.5l-6.2-6.7
	c-0.4-0.4-0.9-0.6-1.5-0.6H2c-1.1,0-2,0.9-2,2S0.9,30.3,2,30.3z M13.2,41.3c0-1.7,1.3-3,3-3c1.7,0,3,1.3,3,3s-1.3,3-3,3c0,0,0,0,0,0
	C14.5,44.3,13.2,42.9,13.2,41.3z"/>
<path class="st0" d="M126,26.3H99.3L83.2,15.6c-0.3-0.2-0.7-0.3-1.1-0.3H58.7c-1.1-3.7-5-5.8-8.7-4.7c-3.7,1.1-5.8,5-4.7,8.7
	s5,5.8,8.7,4.7c2.3-0.7,4-2.4,4.7-4.7h22.7L97.6,30c0.3,0.2,0.7,0.3,1.1,0.3H126c1.1,0,2-0.9,2-2S127.1,26.3,126,26.3z M52,20.3
	c-1.7,0-3-1.3-3-3s1.3-3,3-3s3,1.3,3,3S53.7,20.3,52,20.3z"/>
<path class="st0" d="M126,115.3h-24.3c-0.4,0-0.8,0.1-1.1,0.3l-16.2,10.7h-49l-5.9-6.4c-0.4-0.4-0.9-0.6-1.5-0.6H2c-1.1,0-2,0.9-2,2
	s0.9,2,2,2h25.1l5.9,6.4c0.4,0.4,0.9,0.6,1.5,0.6h50.5c0.4,0,0.8-0.1,1.1-0.3l16.2-10.7H126c1.1,0,2-0.9,2-2S127.1,115.3,126,115.3z
	"/>
<path class="st0" d="M2,114.3h31.1l5.9,6.4c0.7,0.8,2,0.9,2.8,0.2c0.8-0.7,0.9-2,0.2-2.8c0,0-0.1-0.1-0.1-0.1l-6.5-7
	c-0.4-0.4-0.9-0.6-1.5-0.6H2c-1.1,0-2,0.9-2,2S0.9,114.3,2,114.3z"/>
<path class="st0" d="M126,102.3H98.7c-0.4,0-0.8,0.1-1.1,0.3l-16.2,10.7H58.7c-1.1-3.7-5-5.8-8.7-4.7c-3.7,1.1-5.8,5-4.7,8.7
	s5,5.8,8.7,4.7c2.3-0.7,4-2.4,4.7-4.7h23.3c0.4,0,0.8-0.1,1.1-0.3l16.2-10.7H126c1.1,0,2-0.9,2-2S127.1,102.3,126,102.3z M52,118.3
	c-1.7,0-3-1.3-3-3s1.3-3,3-3s3,1.3,3,3S53.7,118.3,52,118.3z"/>
</svg>
